<?xml version="1.0" encoding="UTF-8" standalone="no"?>
<!DOCTYPE svg PUBLIC "-//W3C//DTD SVG 1.1//EN" "http://www.w3.org/Graphics/SVG/1.1/DTD/svg11.dtd">
<svg width="100%" height="100%" viewBox="0 0 460 200" version="1.1" xmlns="http://www.w3.org/2000/svg" xmlns:xlink="http://www.w3.org/1999/xlink" xml:space="preserve" xmlns:serif="http://www.serif.com/" style="fill-rule:evenodd;clip-rule:evenodd;stroke-linejoin:round;stroke-miterlimit:2;">
    <g transform="matrix(0.656056,0,0,0.437442,-1354.83,-1332.32)">
        <path d="M2096.69,3198.3L2160.57,3198.3C2167.38,3198.3 2170.59,3191.5 2170.59,3184.71C2170.59,3177.63 2167.38,3170.84 2160.57,3170.84L2087.25,3170.84C2080.64,3170.84 2074.97,3178.48 2074.97,3187.54L2074.97,3336.34C2074.97,3345.98 2080.45,3351.37 2085.93,3351.37C2091.21,3351.37 2096.69,3345.98 2096.69,3336.06L2096.69,3281.92L2157.17,3281.92C2163.78,3281.92 2167,3275.41 2167,3268.61C2167,3261.82 2163.78,3254.74 2157.17,3254.74L2096.69,3254.74L2096.69,3198.3Z" style="fill:rgb(55,54,67);fill-rule:nonzero;"/>
        <path d="M2208.77,3337.2L2208.77,3182.17C2208.77,3174.52 2204.05,3168 2198.01,3168C2191.59,3168 2187.24,3174.52 2187.24,3182.17L2187.24,3337.2C2187.24,3344.85 2191.59,3351.37 2198.01,3351.37C2204.05,3351.37 2208.77,3344.85 2208.77,3337.2Z" style="fill:rgb(55,54,67);fill-rule:nonzero;"/>
        <path d="M2272.85,3204.28C2242.79,3204.28 2222.59,3234.86 2222.59,3279.95C2222.97,3324.47 2243.17,3354.2 2272.85,3354.2C2302.54,3354.2 2322.74,3324.47 2323.12,3279.95C2323.12,3234.86 2303.11,3204.28 2272.85,3204.28ZM2272.85,3325.89C2255.84,3325.89 2244.68,3307.18 2244.68,3279.95C2244.68,3252.16 2255.84,3232.6 2272.85,3232.6C2289.87,3232.6 2301.03,3252.16 2301.03,3279.95C2301.03,3307.18 2289.87,3325.89 2272.85,3325.89Z" style="fill:rgb(55,54,67);fill-rule:nonzero;"/>
        <path d="M2331.31,3228.37L2365.3,3345.7C2367.19,3352.22 2370.59,3354.2 2374.94,3354.2C2379.66,3354.2 2383.44,3351.37 2385.14,3345.98L2409.88,3269.47L2434.05,3346.27C2435.94,3351.93 2439.91,3354.2 2444.25,3354.2C2449.16,3354.2 2452.37,3351.93 2453.89,3345.98L2487.32,3228.09C2490.53,3216.47 2484.48,3207.12 2477.87,3207.12C2472.77,3207.12 2469.56,3210.8 2467.67,3217.32L2443.31,3301.49L2419.51,3227.81C2417.62,3221.86 2414.03,3218.45 2409.5,3218.45C2405.16,3218.45 2401.38,3221.86 2399.68,3228.09L2376.07,3300.92L2351.52,3216.75C2350.2,3211.94 2345.85,3207.12 2341.7,3207.12C2335.28,3207.12 2327.91,3216.47 2331.31,3228.37Z" style="fill:rgb(55,54,67);fill-rule:nonzero;"/>
        <path d="M2531.42,3323.34L2585.84,3232.88C2588.11,3229.2 2589.24,3225.8 2589.24,3222.12C2589.24,3214.48 2584.71,3207.12 2577.91,3207.12L2512.9,3207.12C2506.1,3207.12 2502.32,3214.48 2502.32,3221.84C2502.32,3228.92 2506.1,3236 2512.9,3236L2556.93,3235.71L2503.08,3326.17C2500.81,3329.57 2499.49,3334.1 2499.49,3337.49C2499.49,3344.57 2503.45,3351.37 2510.82,3351.37L2579.23,3351.37C2586.6,3351.37 2590.19,3344.57 2590.19,3337.49C2590.19,3330.42 2586.41,3323.06 2579.23,3323.06L2531.42,3323.34Z" style="fill:rgb(55,54,67);fill-rule:nonzero;"/>
        <path d="M2682.81,3207.12C2676.77,3207.12 2673.18,3211.65 2672.24,3218.46C2663.92,3208.81 2653.33,3204.28 2645.2,3204.28C2617.41,3204.28 2598.72,3234.86 2598.72,3278.82C2598.72,3324.47 2615.33,3354.2 2642.74,3354.2C2652.2,3354.2 2663.54,3349.67 2672.24,3339.48C2672.99,3346.55 2676.58,3351.37 2682.81,3351.37C2689.23,3351.37 2693.57,3345.42 2693.57,3336.63L2693.57,3221.86C2693.57,3213.07 2689.23,3207.12 2682.81,3207.12ZM2645.01,3325.61C2630.07,3325.61 2620.24,3307.18 2620.24,3279.1C2620.24,3252.16 2630.83,3232.88 2646.71,3232.88C2656.55,3232.88 2667.32,3240.82 2672.05,3254.71L2672.05,3303.77C2667.7,3318.23 2656.17,3325.61 2645.01,3325.61Z" style="fill:rgb(55,54,67);fill-rule:nonzero;"/>
    </g>
    <g transform="matrix(1,0,0,1,-1529,-4109.5)">
        <path d="M1585.34,4261.72C1586.25,4261.86 1587.08,4262.23 1587.84,4262.83C1588.59,4263.43 1589.19,4264.18 1589.64,4265.06C1590.08,4265.95 1590.3,4266.9 1590.3,4267.91C1590.3,4269.18 1589.98,4270.33 1589.33,4271.35C1588.68,4272.37 1587.74,4273.17 1586.51,4273.76C1585.27,4274.35 1583.81,4274.64 1582.13,4274.64L1572.77,4274.64L1572.77,4249.55L1581.77,4249.55C1583.48,4249.55 1584.93,4249.83 1586.13,4250.39C1587.33,4250.96 1588.23,4251.72 1588.83,4252.68C1589.43,4253.64 1589.73,4254.72 1589.73,4255.92C1589.73,4257.41 1589.33,4258.64 1588.52,4259.61C1587.72,4260.58 1586.66,4261.28 1585.34,4261.72ZM1576.05,4260.38L1581.56,4260.38C1583.09,4260.38 1584.28,4260.02 1585.12,4259.3C1585.96,4258.58 1586.38,4257.59 1586.38,4256.32C1586.38,4255.04 1585.96,4254.05 1585.12,4253.33C1584.28,4252.61 1583.07,4252.25 1581.48,4252.25L1576.05,4252.25L1576.05,4260.38ZM1581.84,4271.94C1583.48,4271.94 1584.75,4271.56 1585.66,4270.79C1586.57,4270.02 1587.03,4268.95 1587.03,4267.58C1587.03,4266.19 1586.55,4265.09 1585.59,4264.29C1584.63,4263.49 1583.34,4263.08 1581.74,4263.08L1576.05,4263.08L1576.05,4271.94L1581.84,4271.94Z" style="fill:rgb(55,54,67);fill-rule:nonzero;"/>
        <path d="M1612.34,4254.91L1612.34,4274.64L1609.06,4274.64L1609.06,4271.72C1608.44,4272.73 1607.57,4273.52 1606.45,4274.08C1605.33,4274.65 1604.1,4274.93 1602.76,4274.93C1601.22,4274.93 1599.84,4274.61 1598.62,4273.97C1597.4,4273.34 1596.43,4272.38 1595.72,4271.11C1595.01,4269.84 1594.66,4268.29 1594.66,4266.47L1594.66,4254.91L1597.9,4254.91L1597.9,4266.04C1597.9,4267.98 1598.39,4269.47 1599.38,4270.52C1600.36,4271.56 1601.7,4272.08 1603.41,4272.08C1605.16,4272.08 1606.54,4271.54 1607.55,4270.46C1608.56,4269.38 1609.06,4267.81 1609.06,4265.75L1609.06,4254.91L1612.34,4254.91Z" style="fill:rgb(55,54,67);fill-rule:nonzero;"/>
        <path d="M1624.86,4274.96C1623.35,4274.96 1622,4274.71 1620.8,4274.19C1619.6,4273.67 1618.65,4272.95 1617.95,4272.03C1617.26,4271.11 1616.87,4270.04 1616.8,4268.84L1620.18,4268.84C1620.28,4269.83 1620.74,4270.63 1621.57,4271.26C1622.4,4271.88 1623.48,4272.19 1624.83,4272.19C1626.08,4272.19 1627.06,4271.92 1627.78,4271.36C1628.5,4270.81 1628.86,4270.12 1628.86,4269.28C1628.86,4268.41 1628.48,4267.77 1627.71,4267.35C1626.94,4266.93 1625.75,4266.52 1624.14,4266.11C1622.68,4265.72 1621.49,4265.33 1620.56,4264.94C1619.64,4264.54 1618.85,4263.95 1618.19,4263.17C1617.53,4262.39 1617.2,4261.37 1617.2,4260.1C1617.2,4259.09 1617.5,4258.16 1618.1,4257.32C1618.7,4256.48 1619.55,4255.82 1620.65,4255.33C1621.76,4254.83 1623.02,4254.59 1624.43,4254.59C1626.62,4254.59 1628.38,4255.14 1629.72,4256.24C1631.07,4257.35 1631.79,4258.86 1631.88,4260.78L1628.61,4260.78C1628.54,4259.75 1628.12,4258.92 1627.37,4258.3C1626.61,4257.67 1625.6,4257.36 1624.32,4257.36C1623.15,4257.36 1622.21,4257.61 1621.52,4258.12C1620.82,4258.62 1620.47,4259.28 1620.47,4260.1C1620.47,4260.74 1620.68,4261.28 1621.1,4261.7C1621.52,4262.12 1622.05,4262.45 1622.69,4262.71C1623.32,4262.96 1624.2,4263.24 1625.33,4263.55C1626.75,4263.94 1627.9,4264.31 1628.79,4264.69C1629.68,4265.06 1630.44,4265.62 1631.07,4266.36C1631.71,4267.1 1632.04,4268.08 1632.06,4269.28C1632.06,4270.36 1631.76,4271.33 1631.16,4272.19C1630.56,4273.06 1629.72,4273.73 1628.63,4274.23C1627.53,4274.72 1626.28,4274.96 1624.86,4274.96Z" style="fill:rgb(55,54,67);fill-rule:nonzero;"/>
        <path d="M1638.36,4251.71C1637.74,4251.71 1637.21,4251.49 1636.78,4251.06C1636.35,4250.63 1636.13,4250.1 1636.13,4249.48C1636.13,4248.85 1636.35,4248.32 1636.78,4247.89C1637.21,4247.46 1637.74,4247.24 1638.36,4247.24C1638.96,4247.24 1639.47,4247.46 1639.89,4247.89C1640.31,4248.32 1640.52,4248.85 1640.52,4249.48C1640.52,4250.1 1640.31,4250.63 1639.89,4251.06C1639.47,4251.49 1638.96,4251.71 1638.36,4251.71ZM1639.95,4254.91L1639.95,4274.64L1636.67,4274.64L1636.67,4254.91L1639.95,4254.91Z" style="fill:rgb(55,54,67);fill-rule:nonzero;"/>
        <path d="M1655.14,4254.55C1657.54,4254.55 1659.48,4255.28 1660.97,4256.73C1662.46,4258.18 1663.2,4260.28 1663.2,4263.01L1663.2,4274.64L1659.96,4274.64L1659.96,4263.48C1659.96,4261.51 1659.47,4260.01 1658.49,4258.96C1657.5,4257.92 1656.16,4257.4 1654.46,4257.4C1652.73,4257.4 1651.35,4257.94 1650.33,4259.02C1649.31,4260.1 1648.8,4261.67 1648.8,4263.73L1648.8,4274.64L1645.53,4274.64L1645.53,4254.91L1648.8,4254.91L1648.8,4257.72C1649.45,4256.71 1650.33,4255.93 1651.45,4255.38C1652.57,4254.83 1653.8,4254.55 1655.14,4254.55Z" style="fill:rgb(55,54,67);fill-rule:nonzero;"/>
        <path d="M1686.57,4264.02C1686.57,4264.64 1686.53,4265.3 1686.46,4266L1670.69,4266C1670.81,4267.94 1671.48,4269.46 1672.69,4270.55C1673.9,4271.65 1675.37,4272.19 1677.1,4272.19C1678.52,4272.19 1679.7,4271.86 1680.65,4271.2C1681.59,4270.54 1682.26,4269.66 1682.64,4268.56L1686.17,4268.56C1685.64,4270.45 1684.59,4271.99 1683,4273.18C1681.42,4274.37 1679.45,4274.96 1677.1,4274.96C1675.23,4274.96 1673.55,4274.54 1672.08,4273.7C1670.6,4272.86 1669.44,4271.67 1668.6,4270.12C1667.76,4268.57 1667.34,4266.78 1667.34,4264.74C1667.34,4262.7 1667.75,4260.91 1668.57,4259.38C1669.38,4257.84 1670.53,4256.66 1672.01,4255.83C1673.48,4255 1675.18,4254.59 1677.1,4254.59C1678.97,4254.59 1680.63,4255 1682.07,4255.81C1683.51,4256.63 1684.62,4257.75 1685.4,4259.18C1686.18,4260.61 1686.57,4262.22 1686.57,4264.02ZM1683.18,4263.34C1683.18,4262.09 1682.91,4261.01 1682.36,4260.11C1681.8,4259.21 1681.05,4258.53 1680.11,4258.06C1679.16,4257.59 1678.11,4257.36 1676.96,4257.36C1675.3,4257.36 1673.89,4257.89 1672.73,4258.94C1671.56,4260 1670.9,4261.46 1670.73,4263.34L1683.18,4263.34Z" style="fill:rgb(55,54,67);fill-rule:nonzero;"/>
        <path d="M1697.87,4274.96C1696.36,4274.96 1695,4274.71 1693.8,4274.19C1692.6,4273.67 1691.66,4272.95 1690.96,4272.03C1690.26,4271.11 1689.88,4270.04 1689.81,4268.84L1693.19,4268.84C1693.29,4269.83 1693.75,4270.63 1694.58,4271.26C1695.41,4271.88 1696.49,4272.19 1697.84,4272.19C1699.08,4272.19 1700.07,4271.92 1700.79,4271.36C1701.51,4270.81 1701.87,4270.12 1701.87,4269.28C1701.87,4268.41 1701.48,4267.77 1700.72,4267.35C1699.95,4266.93 1698.76,4266.52 1697.15,4266.11C1695.69,4265.72 1694.49,4265.33 1693.57,4264.94C1692.65,4264.54 1691.85,4263.95 1691.19,4263.17C1690.53,4262.39 1690.2,4261.37 1690.2,4260.1C1690.2,4259.09 1690.5,4258.16 1691.1,4257.32C1691.7,4256.48 1692.56,4255.82 1693.66,4255.33C1694.76,4254.83 1696.02,4254.59 1697.44,4254.59C1699.62,4254.59 1701.39,4255.14 1702.73,4256.24C1704.08,4257.35 1704.8,4258.86 1704.89,4260.78L1701.62,4260.78C1701.54,4259.75 1701.13,4258.92 1700.37,4258.3C1699.62,4257.67 1698.6,4257.36 1697.33,4257.36C1696.16,4257.36 1695.22,4257.61 1694.52,4258.12C1693.83,4258.62 1693.48,4259.28 1693.48,4260.1C1693.48,4260.74 1693.69,4261.28 1694.11,4261.7C1694.53,4262.12 1695.06,4262.45 1695.69,4262.71C1696.33,4262.96 1697.21,4263.24 1698.34,4263.55C1699.76,4263.94 1700.91,4264.31 1701.8,4264.69C1702.68,4265.06 1703.45,4265.62 1704.08,4266.36C1704.72,4267.1 1705.05,4268.08 1705.07,4269.28C1705.07,4270.36 1704.77,4271.33 1704.17,4272.19C1703.57,4273.06 1702.73,4273.73 1701.63,4274.23C1700.54,4274.72 1699.29,4274.96 1697.87,4274.96Z" style="fill:rgb(55,54,67);fill-rule:nonzero;"/>
        <path d="M1716.66,4274.96C1715.15,4274.96 1713.8,4274.71 1712.6,4274.19C1711.4,4273.67 1710.45,4272.95 1709.75,4272.03C1709.06,4271.11 1708.67,4270.04 1708.6,4268.84L1711.98,4268.84C1712.08,4269.83 1712.54,4270.63 1713.37,4271.26C1714.2,4271.88 1715.28,4272.19 1716.63,4272.19C1717.88,4272.19 1718.86,4271.92 1719.58,4271.36C1720.3,4270.81 1720.66,4270.12 1720.66,4269.28C1720.66,4268.41 1720.28,4267.77 1719.51,4267.35C1718.74,4266.93 1717.55,4266.52 1715.94,4266.11C1714.48,4265.72 1713.29,4265.33 1712.36,4264.94C1711.44,4264.54 1710.65,4263.95 1709.99,4263.17C1709.33,4262.39 1709,4261.37 1709,4260.1C1709,4259.09 1709.3,4258.16 1709.9,4257.32C1710.5,4256.48 1711.35,4255.82 1712.45,4255.33C1713.56,4254.83 1714.82,4254.59 1716.23,4254.59C1718.42,4254.59 1720.18,4255.14 1721.52,4256.24C1722.87,4257.35 1723.59,4258.86 1723.68,4260.78L1720.41,4260.78C1720.34,4259.75 1719.92,4258.92 1719.17,4258.3C1718.41,4257.67 1717.4,4257.36 1716.12,4257.36C1714.95,4257.36 1714.01,4257.61 1713.32,4258.12C1712.62,4258.62 1712.27,4259.28 1712.27,4260.1C1712.27,4260.74 1712.48,4261.28 1712.9,4261.7C1713.32,4262.12 1713.85,4262.45 1714.49,4262.71C1715.12,4262.96 1716,4263.24 1717.13,4263.55C1718.55,4263.94 1719.7,4264.31 1720.59,4264.69C1721.48,4265.06 1722.24,4265.62 1722.87,4266.36C1723.51,4267.1 1723.84,4268.08 1723.86,4269.28C1723.86,4270.36 1723.56,4271.33 1722.96,4272.19C1722.36,4273.06 1721.52,4273.73 1720.43,4274.23C1719.33,4274.72 1718.08,4274.96 1716.66,4274.96Z" style="fill:rgb(55,54,67);fill-rule:nonzero;"/>
        <path d="M1746.04,4274.89C1744.38,4274.89 1742.9,4274.6 1741.59,4274.01C1740.29,4273.42 1739.26,4272.61 1738.52,4271.56C1737.77,4270.52 1737.39,4269.31 1737.36,4267.94L1740.86,4267.94C1740.98,4269.12 1741.46,4270.11 1742.31,4270.91C1743.17,4271.72 1744.41,4272.12 1746.04,4272.12C1747.6,4272.12 1748.83,4271.73 1749.73,4270.95C1750.63,4270.17 1751.08,4269.17 1751.08,4267.94C1751.08,4266.98 1750.82,4266.2 1750.29,4265.6C1749.76,4265 1749.1,4264.55 1748.31,4264.24C1747.52,4263.92 1746.45,4263.59 1745.1,4263.23C1743.45,4262.8 1742.12,4262.36 1741.13,4261.93C1740.13,4261.5 1739.28,4260.82 1738.57,4259.9C1737.86,4258.97 1737.51,4257.73 1737.51,4256.17C1737.51,4254.8 1737.86,4253.59 1738.55,4252.54C1739.25,4251.48 1740.23,4250.66 1741.49,4250.09C1742.75,4249.51 1744.19,4249.22 1745.82,4249.22C1748.18,4249.22 1750.1,4249.81 1751.6,4250.99C1753.1,4252.16 1753.95,4253.72 1754.14,4255.67L1750.54,4255.67C1750.42,4254.71 1749.92,4253.86 1749.03,4253.13C1748.14,4252.4 1746.96,4252.03 1745.5,4252.03C1744.13,4252.03 1743.02,4252.39 1742.15,4253.09C1741.29,4253.8 1740.86,4254.79 1740.86,4256.06C1740.86,4256.98 1741.11,4257.72 1741.63,4258.3C1742.15,4258.87 1742.78,4259.31 1743.54,4259.61C1744.29,4259.91 1745.36,4260.25 1746.72,4260.64C1748.38,4261.09 1749.71,4261.54 1750.72,4261.99C1751.73,4262.43 1752.59,4263.11 1753.31,4264.04C1754.03,4264.96 1754.39,4266.22 1754.39,4267.8C1754.39,4269.02 1754.07,4270.18 1753.42,4271.26C1752.77,4272.34 1751.81,4273.21 1750.54,4273.88C1749.27,4274.56 1747.77,4274.89 1746.04,4274.89Z" style="fill:rgb(55,54,67);fill-rule:nonzero;"/>
        <path d="M1767.82,4274.96C1765.97,4274.96 1764.3,4274.54 1762.8,4273.7C1761.3,4272.86 1760.12,4271.67 1759.27,4270.12C1758.42,4268.57 1757.99,4266.78 1757.99,4264.74C1757.99,4262.72 1758.43,4260.94 1759.31,4259.39C1760.18,4257.85 1761.38,4256.66 1762.89,4255.83C1764.4,4255 1766.09,4254.59 1767.96,4254.59C1769.84,4254.59 1771.53,4255 1773.04,4255.83C1774.55,4256.66 1775.75,4257.84 1776.62,4259.38C1777.5,4260.91 1777.94,4262.7 1777.94,4264.74C1777.94,4266.78 1777.49,4268.57 1776.59,4270.12C1775.69,4271.67 1774.47,4272.86 1772.93,4273.7C1771.4,4274.54 1769.69,4274.96 1767.82,4274.96ZM1767.82,4272.08C1769,4272.08 1770.1,4271.81 1771.13,4271.26C1772.16,4270.7 1773,4269.88 1773.63,4268.77C1774.27,4267.67 1774.59,4266.32 1774.59,4264.74C1774.59,4263.16 1774.28,4261.81 1773.65,4260.71C1773.03,4259.6 1772.21,4258.78 1771.2,4258.24C1770.2,4257.7 1769.1,4257.43 1767.93,4257.43C1766.73,4257.43 1765.63,4257.7 1764.63,4258.24C1763.64,4258.78 1762.84,4259.6 1762.24,4260.71C1761.64,4261.81 1761.34,4263.16 1761.34,4264.74C1761.34,4266.35 1761.63,4267.7 1762.22,4268.81C1762.81,4269.91 1763.6,4270.73 1764.58,4271.27C1765.56,4271.81 1766.64,4272.08 1767.82,4272.08Z" style="fill:rgb(55,54,67);fill-rule:nonzero;"/>
        <rect x="1782.26" y="4248" width="3.276" height="26.64" style="fill:rgb(55,54,67);fill-rule:nonzero;"/>
        <path d="M1808.61,4254.91L1808.61,4274.64L1805.33,4274.64L1805.33,4271.72C1804.71,4272.73 1803.84,4273.52 1802.72,4274.08C1801.61,4274.65 1800.38,4274.93 1799.03,4274.93C1797.5,4274.93 1796.12,4274.61 1794.89,4273.97C1793.67,4273.34 1792.7,4272.38 1791.99,4271.11C1791.29,4269.84 1790.93,4268.29 1790.93,4266.47L1790.93,4254.91L1794.17,4254.91L1794.17,4266.04C1794.17,4267.98 1794.66,4269.47 1795.65,4270.52C1796.63,4271.56 1797.98,4272.08 1799.68,4272.08C1801.43,4272.08 1802.81,4271.54 1803.82,4270.46C1804.83,4269.38 1805.33,4267.81 1805.33,4265.75L1805.33,4254.91L1808.61,4254.91Z" style="fill:rgb(55,54,67);fill-rule:nonzero;"/>
        <path d="M1818.15,4257.61L1818.15,4269.24C1818.15,4270.2 1818.35,4270.88 1818.76,4271.27C1819.17,4271.67 1819.88,4271.87 1820.88,4271.87L1823.3,4271.87L1823.3,4274.64L1820.34,4274.64C1818.52,4274.64 1817.15,4274.22 1816.24,4273.38C1815.33,4272.54 1814.87,4271.16 1814.87,4269.24L1814.87,4257.61L1812.32,4257.61L1812.32,4254.91L1814.87,4254.91L1814.87,4249.94L1818.15,4249.94L1818.15,4254.91L1823.3,4254.91L1823.3,4257.61L1818.15,4257.61Z" style="fill:rgb(55,54,67);fill-rule:nonzero;"/>
        <path d="M1828.95,4251.71C1828.32,4251.71 1827.8,4251.49 1827.36,4251.06C1826.93,4250.63 1826.72,4250.1 1826.72,4249.48C1826.72,4248.85 1826.93,4248.32 1827.36,4247.89C1827.8,4247.46 1828.32,4247.24 1828.95,4247.24C1829.55,4247.24 1830.06,4247.46 1830.48,4247.89C1830.9,4248.32 1831.11,4248.85 1831.11,4249.48C1831.11,4250.1 1830.9,4250.63 1830.48,4251.06C1830.06,4251.49 1829.55,4251.71 1828.95,4251.71ZM1830.53,4254.91L1830.53,4274.64L1827.26,4274.64L1827.26,4254.91L1830.53,4254.91Z" style="fill:rgb(55,54,67);fill-rule:nonzero;"/>
        <path d="M1844.72,4274.96C1842.87,4274.96 1841.19,4274.54 1839.69,4273.7C1838.19,4272.86 1837.02,4271.67 1836.17,4270.12C1835.31,4268.57 1834.89,4266.78 1834.89,4264.74C1834.89,4262.72 1835.33,4260.94 1836.2,4259.39C1837.08,4257.85 1838.27,4256.66 1839.78,4255.83C1841.3,4255 1842.99,4254.59 1844.86,4254.59C1846.73,4254.59 1848.42,4255 1849.94,4255.83C1851.45,4256.66 1852.64,4257.84 1853.52,4259.38C1854.39,4260.91 1854.83,4262.7 1854.83,4264.74C1854.83,4266.78 1854.38,4268.57 1853.48,4270.12C1852.58,4271.67 1851.36,4272.86 1849.83,4273.7C1848.29,4274.54 1846.59,4274.96 1844.72,4274.96ZM1844.72,4272.08C1845.89,4272.08 1847,4271.81 1848.03,4271.26C1849.06,4270.7 1849.89,4269.88 1850.53,4268.77C1851.17,4267.67 1851.48,4266.32 1851.48,4264.74C1851.48,4263.16 1851.17,4261.81 1850.55,4260.71C1849.92,4259.6 1849.11,4258.78 1848.1,4258.24C1847.09,4257.7 1846,4257.43 1844.82,4257.43C1843.62,4257.43 1842.53,4257.7 1841.53,4258.24C1840.53,4258.78 1839.74,4259.6 1839.14,4260.71C1838.54,4261.81 1838.24,4263.16 1838.24,4264.74C1838.24,4266.35 1838.53,4267.7 1839.12,4268.81C1839.71,4269.91 1840.49,4270.73 1841.48,4271.27C1842.46,4271.81 1843.54,4272.08 1844.72,4272.08Z" style="fill:rgb(55,54,67);fill-rule:nonzero;"/>
        <path d="M1868.76,4254.55C1871.16,4254.55 1873.11,4255.28 1874.6,4256.73C1876.08,4258.18 1876.83,4260.28 1876.83,4263.01L1876.83,4274.64L1873.59,4274.64L1873.59,4263.48C1873.59,4261.51 1873.1,4260.01 1872.11,4258.96C1871.13,4257.92 1869.78,4257.4 1868.08,4257.4C1866.35,4257.4 1864.98,4257.94 1863.96,4259.02C1862.94,4260.1 1862.43,4261.67 1862.43,4263.73L1862.43,4274.64L1859.15,4274.64L1859.15,4254.91L1862.43,4254.91L1862.43,4257.72C1863.08,4256.71 1863.96,4255.93 1865.07,4255.38C1866.19,4254.83 1867.42,4254.55 1868.76,4254.55Z" style="fill:rgb(55,54,67);fill-rule:nonzero;"/>
        <path d="M1889.18,4274.96C1887.66,4274.96 1886.31,4274.71 1885.11,4274.19C1883.91,4273.67 1882.96,4272.95 1882.26,4272.03C1881.57,4271.11 1881.18,4270.04 1881.11,4268.84L1884.5,4268.84C1884.59,4269.83 1885.05,4270.63 1885.88,4271.26C1886.71,4271.88 1887.8,4272.19 1889.14,4272.19C1890.39,4272.19 1891.37,4271.92 1892.09,4271.36C1892.81,4270.81 1893.17,4270.12 1893.17,4269.28C1893.17,4268.41 1892.79,4267.77 1892.02,4267.35C1891.25,4266.93 1890.06,4266.52 1888.46,4266.11C1886.99,4265.72 1885.8,4265.33 1884.87,4264.94C1883.95,4264.54 1883.16,4263.95 1882.5,4263.17C1881.84,4262.39 1881.51,4261.37 1881.51,4260.1C1881.51,4259.09 1881.81,4258.16 1882.41,4257.32C1883.01,4256.48 1883.86,4255.82 1884.96,4255.33C1886.07,4254.83 1887.33,4254.59 1888.74,4254.59C1890.93,4254.59 1892.69,4255.14 1894.04,4256.24C1895.38,4257.35 1896.1,4258.86 1896.2,4260.78L1892.92,4260.78C1892.85,4259.75 1892.43,4258.92 1891.68,4258.3C1890.92,4257.67 1889.91,4257.36 1888.64,4257.36C1887.46,4257.36 1886.52,4257.61 1885.83,4258.12C1885.13,4258.62 1884.78,4259.28 1884.78,4260.1C1884.78,4260.74 1884.99,4261.28 1885.41,4261.7C1885.83,4262.12 1886.36,4262.45 1887,4262.71C1887.63,4262.96 1888.52,4263.24 1889.64,4263.55C1891.06,4263.94 1892.21,4264.31 1893.1,4264.69C1893.99,4265.06 1894.75,4265.62 1895.39,4266.36C1896.02,4267.1 1896.35,4268.08 1896.38,4269.28C1896.38,4270.36 1896.08,4271.33 1895.48,4272.19C1894.88,4273.06 1894.03,4273.73 1892.94,4274.23C1891.85,4274.72 1890.59,4274.96 1889.18,4274.96Z" style="fill:rgb(55,54,67);fill-rule:nonzero;"/>
    </g>
    <g transform="matrix(1,0,0,1,-3203,-5377.76)">
        <path d="M3627.42,5416.22C3627.18,5412.18 3626.36,5408.17 3624.96,5404.18C3622.97,5398.44 3621.97,5394.48 3621.97,5392.32C3621.97,5389.27 3622.69,5386.95 3624.12,5385.37C3625.56,5383.79 3627.33,5383 3629.44,5383C3631.26,5383 3632.84,5383.79 3634.19,5385.37C3635.53,5386.95 3636.21,5389.21 3636.21,5392.14C3636.21,5394.78 3635.43,5398.45 3633.88,5403.17C3632.33,5407.89 3631.37,5412.24 3631.02,5416.22C3634.24,5414.17 3637.14,5411.68 3639.72,5408.75C3643.71,5404.12 3646.67,5401.25 3648.6,5400.14C3650.53,5399.03 3652.5,5398.47 3654.49,5398.47C3656.42,5398.47 3658.05,5399.13 3659.37,5400.45C3660.68,5401.77 3661.34,5403.33 3661.34,5405.15C3661.34,5407.32 3660.38,5409.25 3658.44,5410.95C3656.51,5412.65 3651.68,5414.35 3643.94,5416.05C3639.43,5417.04 3635.68,5418.19 3632.69,5419.48C3635.74,5421.06 3639.46,5422.26 3643.85,5423.08C3650.94,5424.37 3655.59,5425.98 3657.78,5427.91C3659.98,5429.85 3661.08,5431.95 3661.08,5434.24C3661.08,5436 3660.42,5437.52 3659.1,5438.81C3657.78,5440.1 3656.25,5440.74 3654.49,5440.74C3652.73,5440.74 3650.78,5440.13 3648.64,5438.9C3646.51,5437.67 3643.62,5434.91 3639.99,5430.64C3637.58,5427.77 3634.6,5425.07 3631.02,5422.55C3631.14,5425.89 3631.81,5429.52 3633.04,5433.45C3635.15,5440.36 3636.21,5445.08 3636.21,5447.6C3636.21,5449.94 3635.5,5451.92 3634.1,5453.53C3632.69,5455.14 3631.2,5455.95 3629.62,5455.95C3627.45,5455.95 3625.48,5455.1 3623.73,5453.4C3622.5,5452.17 3621.88,5450.21 3621.88,5447.51C3621.88,5444.7 3622.56,5441.32 3623.9,5437.36C3625.25,5433.4 3626.1,5430.68 3626.45,5429.19C3626.8,5427.69 3627.12,5425.48 3627.42,5422.55C3623.96,5424.84 3620.94,5427.39 3618.37,5430.2C3614.09,5435 3610.87,5438.05 3608.7,5439.34C3607.17,5440.28 3605.59,5440.74 3603.95,5440.74C3601.96,5440.74 3600.26,5440.07 3598.85,5438.72C3597.45,5437.38 3596.74,5435.88 3596.74,5434.24C3596.74,5432.78 3597.35,5431.24 3598.55,5429.63C3599.75,5428.02 3601.55,5426.68 3603.95,5425.63C3605.53,5424.92 3609.14,5423.99 3614.76,5422.81C3618.39,5422.05 3621.94,5420.94 3625.4,5419.48C3622.23,5417.89 3618.45,5416.66 3614.06,5415.78C3606.85,5414.26 3602.4,5412.88 3600.7,5411.65C3598.06,5409.72 3596.74,5407.38 3596.74,5404.62C3596.74,5403.04 3597.4,5401.59 3598.72,5400.27C3600.04,5398.95 3601.58,5398.29 3603.34,5398.29C3605.27,5398.29 3607.32,5398.91 3609.49,5400.14C3611.66,5401.37 3614.35,5403.85 3617.57,5407.57C3620.8,5411.29 3624.08,5414.17 3627.42,5416.22Z" style="fill:rgb(24,203,150);fill-rule:nonzero;"/>
    </g>
</svg>
